<svg width="29" height="34" viewBox="0 0 29 34" fill="none" xmlns="http://www.w3.org/2000/svg">
<path d="M12.9583 27.7482C9.43715 27.3501 6.2017 25.6199 3.91541 22.9125C1.62911 20.2051 0.465217 16.7256 0.662382 13.1875C0.859547 9.64933 2.40283 6.32068 4.97578 3.88406C7.54873 1.44743 10.9564 0.0874622 14.5 0.0830115C18.048 0.0804272 21.4622 1.43711 24.0407 3.87418C26.6192 6.31125 28.1662 9.64352 28.3636 13.186C28.561 16.7285 27.3939 20.212 25.1021 22.9205C22.8103 25.629 19.568 27.3566 16.0417 27.7482V33.9997H12.9583V27.7482ZM14.5 24.7497C15.9172 24.7497 17.3205 24.4705 18.6298 23.9282C19.9391 23.3859 21.1288 22.591 22.1309 21.5889C23.133 20.5868 23.9279 19.3971 24.4702 18.0878C25.0125 16.7785 25.2917 15.3752 25.2917 13.958C25.2917 12.5408 25.0125 11.1375 24.4702 9.82822C23.9279 8.51891 23.133 7.32925 22.1309 6.32715C21.1288 5.32505 19.9391 4.53014 18.6298 3.98781C17.3205 3.44548 15.9172 3.16634 14.5 3.16634C11.6379 3.16634 8.89297 4.30332 6.86914 6.32715C4.84531 8.35098 3.70833 11.0959 3.70833 13.958C3.70833 16.8201 4.84531 19.565 6.86914 21.5889C8.89297 23.6127 11.6379 24.7497 14.5 24.7497Z" fill="#0B0B0B"/>
</svg>
