<svg width="235" height="235" viewBox="0 0 235 235" fill="none" xmlns="http://www.w3.org/2000/svg">
<rect y="117" width="235" height="2" fill="white"/>
<rect y="117" width="235" height="2" fill="white"/>
<rect x="16.2419" y="175.884" width="235" height="2" transform="rotate(-30 16.2419 175.884)" fill="white"/>
<rect x="15.2421" y="58.3838" width="235" height="2" transform="rotate(30 15.2421 58.3838)" fill="white"/>
<rect x="117" y="235" width="235" height="2" transform="rotate(-90 117 235)" fill="white"/>
<rect x="36" y="200" width="235" height="2" transform="rotate(-45 36 200)" fill="white"/>
<rect x="34" y="34" width="235" height="2" transform="rotate(45 34 34)" fill="white"/>
<rect x="2.02051" y="86.2388" width="235" height="2" transform="rotate(15 2.02051 86.2388)" fill="white"/>
<rect x="59.1761" y="218.88" width="235" height="2" transform="rotate(-60 59.1761 218.88)" fill="white"/>
<rect x="87.2389" y="230.979" width="235" height="2" transform="rotate(-75 87.2389 230.979)" fill="white"/>
<rect x="5.62207" y="147.208" width="235" height="2" transform="rotate(-15 5.62207 147.208)" fill="white"/>
<rect x="147.2" y="231.31" width="235" height="2" transform="rotate(-105 147.2 231.31)" fill="white"/>
<rect x="173.439" y="217.503" width="235" height="2" transform="rotate(-120 173.439 217.503)" fill="white"/>
</svg>
