<svg width="128" height="27" viewBox="0 0 128 27" fill="none" xmlns="http://www.w3.org/2000/svg">
<g clip-path="url(#clip0)">
<path d="M6.05577 12.8278L-2.27911 7.35802L3.45112 2.40918L19.8604 3.97197L6.05577 12.8278Z" fill="#40372C"/>
<path d="M6.05577 10.2233L-2.27911 4.75353L3.45112 -0.195312L19.8604 1.36748L6.05577 10.2233Z" fill="#EEECEA"/>
<path d="M6.05577 7.61831L-2.27911 2.14854L1.5 -4L19.8604 -1.2375L6.05577 7.61831Z" fill="#40372C"/>
</g>
<path d="M27.2797 0C28.3918 0 29.3573 0.184038 30.1762 0.552113C31.0072 0.920188 31.6428 1.44776 32.0827 2.13484C32.5227 2.82191 32.7427 3.63781 32.7427 4.58254C32.7427 5.51499 32.5227 6.33089 32.0827 7.03023C31.6428 7.71731 31.0072 8.24488 30.1762 8.61296C29.3573 8.98103 28.3918 9.16507 27.2797 9.16507H24.3832V12.8826H22V0H27.2797ZM27.1697 7.14066C28.2085 7.14066 28.9968 6.91981 29.5346 6.47812C30.0723 6.03643 30.3412 5.40457 30.3412 4.58254C30.3412 3.7605 30.0723 3.12864 29.5346 2.68695C28.9968 2.24526 28.2085 2.02441 27.1697 2.02441H24.3832V7.14066H27.1697Z" fill="#40372C"/>
<path d="M48.2882 10.8766V12.8826H38.6637V0H48.0315V2.00601H41.0469V5.35549H47.2432V7.3247H41.0469V10.8766H48.2882Z" fill="#40372C"/>
<path d="M63.3192 2.02441H56.9579L56.9762 12.8826H54.6297V0H63.3375L63.3192 2.02441Z" fill="#40372C"/>
<path d="M75.0371 9.90122H68.6208L67.3559 12.8826H64.8993L70.674 0H73.0205L78.8135 12.8826H76.3203L75.0371 9.90122ZM74.2488 8.02404L71.8289 2.39249L69.4274 8.02404H74.2488Z" fill="#40372C"/>
<path d="M95.5 0V12.8826H93.1535V2.02441H88.0938L87.9838 5.24507C87.9227 7.04864 87.776 8.51481 87.5438 9.64357C87.3116 10.7601 86.9389 11.6128 86.4255 12.2017C85.9122 12.7783 85.2034 13.0667 84.299 13.0667C83.9812 13.0667 83.5474 13.0053 82.9974 12.8826L83.1624 10.803C83.3213 10.8521 83.5046 10.8766 83.7124 10.8766C84.4579 10.8766 84.9834 10.4349 85.2889 9.55155C85.6067 8.6559 85.8022 7.25108 85.8756 5.33709L86.0589 0H95.5Z" fill="#40372C"/>
<path d="M29.0806 21.467C29.0806 22.2238 28.8111 22.8199 28.2721 23.2555C27.7385 23.6856 26.9899 23.9143 26.0263 23.9415V24.5295H25.4628V23.9415C24.4991 23.9088 23.7478 23.6774 23.2088 23.2473C22.6752 22.8172 22.4084 22.2238 22.4084 21.467C22.4084 20.7102 22.6752 20.1168 23.2088 19.6867C23.7478 19.2566 24.4991 19.0252 25.4628 18.9925V18.4208H26.0263V18.9925C26.9845 19.0252 27.7331 19.2593 28.2721 19.6948C28.8111 20.1249 29.0806 20.7157 29.0806 21.467ZM26.0263 23.4597C26.8157 23.427 27.4255 23.2392 27.8556 22.8962C28.2857 22.5532 28.5008 22.0768 28.5008 21.467C28.5008 20.8572 28.283 20.3808 27.8474 20.0378C27.4173 19.6948 26.8103 19.5097 26.0263 19.4825V23.4597ZM22.9883 21.467C22.9883 22.0768 23.2033 22.5532 23.6334 22.8962C24.069 23.2337 24.6788 23.4216 25.4628 23.4597V19.4825C24.6679 19.5152 24.0554 19.703 23.6253 20.046C23.2006 20.3836 22.9883 20.8572 22.9883 21.467ZM34.0314 22.8063H30.8464L30.1604 24.3335H29.5316L32.1449 18.6168H32.7411L35.3544 24.3335H34.7174L34.0314 22.8063ZM33.8109 22.3163L32.4389 19.2457L31.0669 22.3163H33.8109ZM41.2274 18.6168V24.3335H40.6313V21.6957H37.0543V24.3335H36.4499V18.6168H37.0543V21.1648H40.6313V18.6168H41.2274ZM47.1996 23.8108V24.3335H43.1571V18.6168H47.0771V19.1395H43.7615V21.173H46.7178V21.6875H43.7615V23.8108H47.1996ZM50.6801 18.6168C51.4096 18.6168 51.9813 18.7911 52.3951 19.1395C52.8089 19.4879 53.0158 19.9671 53.0158 20.5768C53.0158 21.1866 52.8089 21.6657 52.3951 22.0142C51.9813 22.3572 51.4096 22.5287 50.6801 22.5287H49.1448V24.3335H48.5404V18.6168H50.6801ZM50.6638 21.9978C51.23 21.9978 51.6628 21.8753 51.9623 21.6303C52.2617 21.3799 52.4114 21.0287 52.4114 20.5768C52.4114 20.1141 52.2617 19.7602 51.9623 19.5152C51.6628 19.2647 51.23 19.1395 50.6638 19.1395H49.1448V21.9978H50.6638ZM59.0362 18.6168V24.3335H58.44V21.6957H54.863V24.3335H54.2587V18.6168H54.863V21.1648H58.44V18.6168H59.0362ZM63.3587 20.6585C64.0338 20.6585 64.5483 20.8109 64.9022 21.1158C65.2615 21.4207 65.4412 21.8672 65.4412 22.4552C65.4412 23.0704 65.2507 23.5386 64.8695 23.8598C64.4939 24.1756 63.9494 24.3335 63.2362 24.3335H60.9659V18.6168H61.562V20.6585H63.3587ZM63.2199 23.8517C63.748 23.8517 64.1482 23.7346 64.4204 23.5005C64.698 23.2664 64.8369 22.9207 64.8369 22.4633C64.8369 21.5868 64.2979 21.1485 63.2199 21.1485H61.562V23.8517H63.2199ZM66.4294 18.6168H67.0255V24.3335H66.4294V18.6168ZM68.9491 18.6168H69.5453V23.3535L73.2039 18.6168H73.7511V24.3335H73.1549V19.605L69.4963 24.3335H68.9491V18.6168ZM71.3338 18.2003C70.9254 18.2003 70.6015 18.1078 70.3619 17.9227C70.1278 17.7376 70.0081 17.4789 70.0026 17.1468H70.4518C70.4572 17.3646 70.5389 17.5361 70.6968 17.6613C70.8547 17.7866 71.067 17.8492 71.3338 17.8492C71.5951 17.8492 71.8047 17.7866 71.9626 17.6613C72.1259 17.5361 72.2103 17.3646 72.2158 17.1468H72.6649C72.6595 17.4789 72.537 17.7376 72.2974 17.9227C72.0579 18.1078 71.7367 18.2003 71.3338 18.2003ZM79.7123 21.712H78.4056V24.3335H77.8176V18.6168H78.4056V21.1812H79.7123L81.6478 18.6168H82.3011L80.1778 21.3935L82.4236 24.3335H81.7294L79.7123 21.712ZM85.8516 24.3825C85.2854 24.3825 84.7709 24.2573 84.3081 24.0068C83.8508 23.7509 83.4915 23.4025 83.2301 22.9615C82.9742 22.5205 82.8463 22.0251 82.8463 21.4752C82.8463 20.9253 82.9742 20.4298 83.2301 19.9888C83.4915 19.5478 83.8508 19.2021 84.3081 18.9517C84.7709 18.6958 85.2854 18.5678 85.8516 18.5678C86.4178 18.5678 86.9269 18.6931 87.3788 18.9435C87.8361 19.1939 88.1955 19.5424 88.4568 19.9888C88.7181 20.4298 88.8488 20.9253 88.8488 21.4752C88.8488 22.0251 88.7181 22.5232 88.4568 22.9697C88.1955 23.4107 87.8361 23.7564 87.3788 24.0068C86.9269 24.2573 86.4178 24.3825 85.8516 24.3825ZM85.8516 23.8435C86.3035 23.8435 86.7118 23.7428 87.0766 23.5413C87.4414 23.3344 87.7272 23.0513 87.9341 22.692C88.141 22.3272 88.2445 21.9216 88.2445 21.4752C88.2445 21.0287 88.141 20.6258 87.9341 20.2665C87.7272 19.9017 87.4414 19.6186 87.0766 19.4172C86.7118 19.2103 86.3035 19.1068 85.8516 19.1068C85.3997 19.1068 84.9887 19.2103 84.6185 19.4172C84.2537 19.6186 83.9651 19.9017 83.7528 20.2665C83.5459 20.6258 83.4425 21.0287 83.4425 21.4752C83.4425 21.9216 83.5459 22.3272 83.7528 22.692C83.9651 23.0513 84.2537 23.3344 84.6185 23.5413C84.9887 23.7428 85.3997 23.8435 85.8516 23.8435ZM96.2281 18.6168V24.3335H95.6482V19.7602L93.4024 23.6067H93.1166L90.8707 19.7847V24.3335H90.2909V18.6168H90.7891L93.2717 22.8553L95.7299 18.6168H96.2281ZM98.1545 18.6168H102.336V19.1313H98.7507V21.0015H100.621C101.296 21.0015 101.808 21.1403 102.156 21.418C102.51 21.6957 102.687 22.0986 102.687 22.6267C102.687 23.1766 102.496 23.5985 102.115 23.8925C101.74 24.1865 101.198 24.3335 100.49 24.3335H98.1545V18.6168ZM100.482 23.8517C101.01 23.8517 101.408 23.7509 101.674 23.5495C101.947 23.3481 102.083 23.0486 102.083 22.6512C102.083 22.2592 101.949 21.9679 101.683 21.7773C101.421 21.5813 101.021 21.4833 100.482 21.4833H98.7507V23.8517H100.482ZM104.088 18.6168H104.684V23.3535L108.343 18.6168H108.89V24.3335H108.294V19.605L104.635 24.3335H104.088V18.6168ZM115.597 18.6168V24.3335H115.001V21.6957H111.424V24.3335H110.819V18.6168H111.424V21.1648H115.001V18.6168H115.597ZM121.185 22.8063H118L117.314 24.3335H116.685L119.299 18.6168H119.895L122.508 24.3335H121.871L121.185 22.8063ZM120.965 22.3163L119.593 19.2457L118.221 22.3163H120.965ZM127.057 19.1395H125.048V24.3335H124.452V19.1395H122.443V18.6168H127.057V19.1395Z" fill="#40372C"/>
<defs>
<clipPath id="clip0">
<rect width="14" height="14" fill="white"/>
</clipPath>
</defs>
</svg>
