<svg width="144" height="33" viewBox="0 0 144 33" fill="none" xmlns="http://www.w3.org/2000/svg">
<g clip-path="url(#clip0)">
<path d="M10.1034 19.0435L-2.27002 10.9234L6.23672 3.57666L30.5969 5.89668L10.1034 19.0435Z" fill="#106C3B"/>
<path d="M10.1034 15.1772L-2.27002 7.05718L6.23672 -0.289551L30.5969 2.03047L10.1034 15.1772Z" fill="#EEECEA"/>
<path d="M10.1034 11.3093L-2.27002 3.18926L3.34021 -5.93848L30.5969 -1.83745L10.1034 11.3093Z" fill="#106C3B"/>
</g>
<path d="M41.6111 0C43.2621 0 44.6954 0.273211 45.911 0.819632C47.1448 1.36605 48.0882 2.14926 48.7414 3.16924C49.3945 4.18923 49.7211 5.40046 49.7211 6.80294C49.7211 8.18721 49.3945 9.39844 48.7414 10.4366C48.0882 11.4566 47.1448 12.2398 45.911 12.7862C44.6954 13.3327 43.2621 13.6059 41.6111 13.6059H37.3111V19.1247H33.7732V0H41.6111ZM41.4478 10.6006C42.99 10.6006 44.1602 10.2727 44.9585 9.61701C45.7568 8.9613 46.156 8.02328 46.156 6.80294C46.156 5.5826 45.7568 4.64458 44.9585 3.98887C44.1602 3.33317 42.99 3.00531 41.4478 3.00531H37.3111V10.6006H41.4478Z" fill="#106C3B"/>
<path d="M72.7989 16.1467V19.1247H58.5111V0H72.4179V2.97799H62.049V7.95042H71.2477V10.8738H62.049V16.1467H72.7989Z" fill="#106C3B"/>
<path d="M95.113 3.00531H85.6694L85.6967 19.1247H82.2131V0H95.1402L95.113 3.00531Z" fill="#106C3B"/>
<path d="M112.509 14.6987H102.983L101.106 19.1247H97.4588L106.031 0H109.515L118.115 19.1247H114.414L112.509 14.6987ZM111.338 11.912L107.746 3.55173L104.181 11.912H111.338Z" fill="#106C3B"/>
<path d="M142.887 0V19.1247H139.403V3.00531H131.892L131.729 7.7865C131.638 10.464 131.42 12.6405 131.075 14.3162C130.731 15.9737 130.177 17.2396 129.415 18.1139C128.653 18.9699 127.601 19.3979 126.258 19.3979C125.787 19.3979 125.143 19.3069 124.326 19.1247L124.571 16.0375C124.807 16.1103 125.079 16.1467 125.387 16.1467C126.494 16.1467 127.274 15.491 127.728 14.1796C128.2 12.85 128.49 10.7645 128.599 7.9231L128.871 0H142.887Z" fill="#106C3B"/>
<path d="M9.878 28.0531C9.878 29.0651 9.526 29.8644 8.822 30.4511C8.118 31.0377 7.117 31.3567 5.819 31.4081V32.2221H4.499V31.4081C3.201 31.3421 2.19633 31.0194 1.485 30.4401C0.781 29.8607 0.429 29.0651 0.429 28.0531C0.429 27.0411 0.781 26.2454 1.485 25.6661C2.19633 25.0794 3.201 24.7531 4.499 24.6871V23.9061H5.819V24.6871C7.117 24.7531 8.118 25.0794 8.822 25.6661C9.526 26.2454 9.878 27.0411 9.878 28.0531ZM5.819 30.2861C6.699 30.2201 7.36633 30.0001 7.821 29.6261C8.27567 29.2447 8.503 28.7167 8.503 28.0421C8.503 27.3674 8.272 26.8431 7.81 26.4691C7.35533 26.0951 6.69167 25.8787 5.819 25.8201V30.2861ZM1.826 28.0531C1.826 28.7204 2.05333 29.2411 2.508 29.6151C2.97 29.9891 3.63367 30.2127 4.499 30.2861V25.8201C2.717 25.9521 1.826 26.6964 1.826 28.0531ZM16.3763 30.1321H12.5263L11.7673 31.9141H10.2933L13.7583 24.2141H15.1663L18.6423 31.9141H17.1463L16.3763 30.1321ZM15.9033 29.0101L14.4513 25.6441L13.0103 29.0101H15.9033ZM26.6651 24.2141V31.9141H25.2351V28.6141H21.2531V31.9141H19.8231V24.2141H21.2531V27.3931H25.2351V24.2141H26.6651ZM34.6001 30.7151V31.9141H28.8251V24.2141H34.4461V25.4131H30.2551V27.4151H33.9731V28.5921H30.2551V30.7151H34.6001ZM39.3622 24.2141C40.0295 24.2141 40.6089 24.3241 41.1002 24.5441C41.5989 24.7641 41.9802 25.0794 42.2442 25.4901C42.5082 25.9007 42.6402 26.3884 42.6402 26.9531C42.6402 27.5104 42.5082 27.9981 42.2442 28.4161C41.9802 28.8267 41.5989 29.1421 41.1002 29.3621C40.6089 29.5821 40.0295 29.6921 39.3622 29.6921H37.6242V31.9141H36.1942V24.2141H39.3622ZM39.2962 28.4821C39.9195 28.4821 40.3925 28.3501 40.7152 28.0861C41.0379 27.8221 41.1992 27.4444 41.1992 26.9531C41.1992 26.4617 41.0379 26.0841 40.7152 25.8201C40.3925 25.5561 39.9195 25.4241 39.2962 25.4241H37.6242V28.4821H39.2962ZM50.835 24.2141V31.9141H49.405V28.6141H45.423V31.9141H43.993V24.2141H45.423V27.3931H49.405V24.2141H50.835ZM56.548 26.8211C57.472 26.8211 58.1797 27.0301 58.671 27.4481C59.1697 27.8587 59.419 28.4711 59.419 29.2851C59.419 30.1357 59.1477 30.7884 58.605 31.2431C58.0623 31.6904 57.2997 31.9141 56.317 31.9141H53.006V24.2141H54.414V26.8211H56.548ZM56.251 30.8141C56.8083 30.8141 57.2373 30.6857 57.538 30.4291C57.8387 30.1724 57.989 29.7984 57.989 29.3071C57.989 28.3757 57.4097 27.9101 56.251 27.9101H54.414V30.8141H56.251ZM60.53 24.2141H61.938V31.9141H60.53V24.2141ZM64.1134 24.2141H65.5214V29.6811L69.6574 24.2141H70.9884V31.9141H69.5804V26.4581L65.4444 31.9141H64.1134V24.2141ZM67.5344 23.6971C66.8744 23.6971 66.3757 23.5614 66.0384 23.2901C65.7084 23.0187 65.5397 22.6227 65.5324 22.1021H66.5334C66.5407 22.3734 66.6287 22.5824 66.7974 22.7291C66.9661 22.8757 67.2117 22.9491 67.5344 22.9491C67.8497 22.9491 68.0954 22.8757 68.2714 22.7291C68.4547 22.5824 68.5501 22.3734 68.5574 22.1021H69.5474C69.5401 22.6154 69.3641 23.0114 69.0194 23.2901C68.6821 23.5614 68.1871 23.6971 67.5344 23.6971ZM79.0254 28.6691H77.5954V31.9141H76.1874V24.2141H77.5954V27.4371H79.0694L81.2804 24.2141H82.7984L80.1694 27.9431L82.8974 31.9141H81.2804L79.0254 28.6691ZM87.4106 32.0241C86.6259 32.0241 85.9182 31.8554 85.2876 31.5181C84.6569 31.1734 84.1619 30.7004 83.8026 30.0991C83.4432 29.4904 83.2636 28.8121 83.2636 28.0641C83.2636 27.3161 83.4432 26.6414 83.8026 26.0401C84.1619 25.4314 84.6569 24.9584 85.2876 24.6211C85.9182 24.2764 86.6259 24.1041 87.4106 24.1041C88.1952 24.1041 88.9029 24.2764 89.5336 24.6211C90.1642 24.9584 90.6592 25.4277 91.0186 26.0291C91.3779 26.6304 91.5576 27.3087 91.5576 28.0641C91.5576 28.8194 91.3779 29.4977 91.0186 30.0991C90.6592 30.7004 90.1642 31.1734 89.5336 31.5181C88.9029 31.8554 88.1952 32.0241 87.4106 32.0241ZM87.4106 30.7701C87.9239 30.7701 88.3859 30.6564 88.7966 30.4291C89.2072 30.1944 89.5299 29.8717 89.7646 29.4611C89.9992 29.0431 90.1166 28.5774 90.1166 28.0641C90.1166 27.5507 89.9992 27.0887 89.7646 26.6781C89.5299 26.2601 89.2072 25.9374 88.7966 25.7101C88.3859 25.4754 87.9239 25.3581 87.4106 25.3581C86.8972 25.3581 86.4352 25.4754 86.0246 25.7101C85.6139 25.9374 85.2912 26.2601 85.0566 26.6781C84.8219 27.0887 84.7046 27.5507 84.7046 28.0641C84.7046 28.5774 84.8219 29.0431 85.0566 29.4611C85.2912 29.8717 85.6139 30.1944 86.0246 30.4291C86.4352 30.6564 86.8972 30.7701 87.4106 30.7701ZM100.212 31.9141L100.201 26.8101L97.6705 31.0341H97.0325L94.5025 26.8761V31.9141H93.1495V24.2141H94.3265L97.3735 29.3071L100.388 24.2141H101.554L101.576 31.9141H100.212ZM103.741 24.2141H109.736V25.3911H105.149V27.2831H107.426C108.35 27.2831 109.051 27.4774 109.527 27.8661C110.011 28.2474 110.253 28.8011 110.253 29.5271C110.253 30.2897 109.989 30.8801 109.461 31.2981C108.933 31.7087 108.182 31.9141 107.206 31.9141H103.741V24.2141ZM107.129 30.8141C107.679 30.8141 108.097 30.7077 108.383 30.4951C108.669 30.2824 108.812 29.9744 108.812 29.5711C108.812 28.7791 108.251 28.3831 107.129 28.3831H105.149V30.8141H107.129ZM111.83 24.2141H113.238V29.6811L117.374 24.2141H118.705V31.9141H117.297V26.4581L113.161 31.9141H111.83V24.2141ZM127.706 24.2141V31.9141H126.276V28.6141H122.294V31.9141H120.864V24.2141H122.294V27.3931H126.276V24.2141H127.706ZM134.97 30.1321H131.12L130.361 31.9141H128.887L132.352 24.2141H133.76L137.236 31.9141H135.74L134.97 30.1321ZM134.497 29.0101L133.045 25.6441L131.604 29.0101H134.497ZM143.618 25.4241H141.066V31.9141H139.647V25.4241H137.106V24.2141H143.618V25.4241Z" fill="#106C3B"/>
<defs>
<clipPath id="clip0">
<rect width="20.7835" height="20.7835" fill="white" transform="translate(1.1134)"/>
</clipPath>
</defs>
</svg>
